<svg xmlns="http://www.w3.org/2000/svg" width="18.6" height="22.551" viewBox="0 0 18.6 22.551">
  <g id="Group_16" data-name="Group 16" transform="translate(-67.641 0.5)">
    <g id="Group_13" data-name="Group 13" transform="translate(68.135)">
      <path id="Path_48" data-name="Path 48" d="M340.714,598.844a3.843,3.843,0,0,1,1.242-3.5,7.131,7.131,0,0,1,5.034-2.184,6.35,6.35,0,0,1,4.924,2.33,5.728,5.728,0,0,1,.949,5.32" transform="translate(-337.803 -593.16)" fill="none" stroke="#0dd9d9" stroke-miterlimit="10" stroke-width="1"/>
      <path id="Path_49" data-name="Path 49" d="M352.922,600.917a2.158,2.158,0,0,1,2.009,1.368,6.327,6.327,0,0,1,.387,2.545l.09,6.51a3.418,3.418,0,0,1-.611,2.463,3.236,3.236,0,0,1-2.115.751c-2.057.186-4.127.169-6.192.151l-5.029-.042a2.849,2.849,0,0,1-3.48-3.407l-.162-5.6a9.958,9.958,0,0,1,.105-2.251,3.352,3.352,0,0,1,1.061-1.943,5.046,5.046,0,0,1,3.376-.749l10.839.189" transform="translate(-337.803 -593.16)" fill="none" stroke="#0dd9d9" stroke-miterlimit="10" stroke-width="1"/>
      <path id="Path_50" data-name="Path 50" d="M345.6,607.415a2.843,2.843,0,0,0,.319,1.4,1.142,1.142,0,0,0,1.221.571,1.1,1.1,0,0,0,.628-.55,2.387,2.387,0,0,0,.233-.819,6.085,6.085,0,0,0,0-1.612,1.818,1.818,0,0,0-.627-1.3,1.051,1.051,0,0,0-1.635,1.047" transform="translate(-337.803 -593.16)" fill="none" stroke="#0dd9d9" stroke-miterlimit="10" stroke-width="1"/>
    </g>
  </g>
</svg>
