<svg xmlns="http://www.w3.org/2000/svg" viewBox="0 0 40 40"><defs><style>.cls-1{fill:#fdca50;}.cls-2{fill:#4db6d8;}</style></defs><g id="Layer_2" data-name="Layer 2"><g id="Layer_1-2" data-name="Layer 1"><path class="cls-1" d="M14.66,25.91A5.52,5.52,0,0,0,15.09,24l1.13-.17a4.39,4.39,0,0,1-1,2.35ZM17,25.84a3.84,3.84,0,0,0,.88-2.07c0-.58-.29-.91-1.09-.91a7,7,0,0,0-1.88.32l.64-1.85a7.11,7.11,0,0,1,1.74-.23,1.74,1.74,0,0,1,1.95,1.79,4.88,4.88,0,0,1-1.69,3.27Z"/><path class="cls-1" d="M23.38,23.88c.33-.56.18-1.17-.55-1.17s-1.25.72-1.31,1.46a1,1,0,0,0,.92,1.17,1.1,1.1,0,0,0,1-.62l.39.15a1.86,1.86,0,0,1-1.78,1.26A1.72,1.72,0,0,1,20.3,25c-.2.4-.41.79-.63,1.19L19.05,26a29.1,29.1,0,0,0,1.16-5.08l1.68-.24c-.08.31-.15.6-.24.89A2.46,2.46,0,0,1,23,21.23c1.7,0,1.94,1.88.72,2.79Z"/><path class="cls-2" d="M9.87,16.28A3.84,3.84,0,0,1,8.5,18.82l-.4-.26A2.92,2.92,0,0,0,8.78,17c0-.49-.23-.78-.9-.78H7.59c-.34,1.79-1,2.61-1.81,2.61A.87.87,0,0,1,5,18.33l.3-.27a.47.47,0,0,0,.38.21c.33,0,.61-.53.76-1.93l-.53.11L6.4,15a6.3,6.3,0,0,1,1.66-.22C9.1,14.81,9.87,15.26,9.87,16.28Z"/><path class="cls-2" d="M9.23,18.32l.28-.27a.48.48,0,0,0,.39.21c.42,0,.77-.75.7-3.31l1.31-.21c-.09,2.88-.82,4-1.88,4A.85.85,0,0,1,9.23,18.32Z"/><path class="cls-2" d="M12.06,17c0-1.79,1.71-3,3.93-2.62l-.44,1.35c-1.24-.21-2.35.43-2.35,1.39A.81.81,0,0,0,14,18a.63.63,0,0,0,.66-.63.88.88,0,0,0-.28-.61l.26-.27a1.19,1.19,0,0,1,.57,1,1.3,1.3,0,0,1-1.41,1.25A1.66,1.66,0,0,1,12.06,17Z"/><path class="cls-2" d="M15.8,16.9a19.2,19.2,0,0,0,.33-2l1.31-.18a11.28,11.28,0,0,1-.94,2.19Z"/><path class="cls-2" d="M17.35,16.9a19.17,19.17,0,0,0,.32-2L19,14.73a11.92,11.92,0,0,1-.93,2.19Z"/><path class="cls-2" d="M17.94,20.09h0a11.79,11.79,0,0,0,1-3L20.09,17a9.44,9.44,0,0,1-1.71,3.31h0Z"/><path class="cls-2" d="M20.12,18.39a1.94,1.94,0,0,0,1.07-1.51c0-.43-.25-.69-.88-.69a5.73,5.73,0,0,0-1.48.25l.5-1.45a5.89,5.89,0,0,1,1.37-.18,1.4,1.4,0,0,1,1.56,1.43,2.79,2.79,0,0,1-1.9,2.49Z"/><path class="cls-1" d="M32.84,18a3.75,3.75,0,0,1,.58.77c.21.37.18-1.41-1.08-2.68a7.52,7.52,0,0,1,1.08.85,9.24,9.24,0,0,1,2.09,2.55,2.53,2.53,0,0,0,0-2c-.75-1.6-1.84-1.74-1.84-1.74a1.45,1.45,0,0,1,1,.37c.46.4-.77-1.38-2.49-1.53a3.88,3.88,0,0,0-2.13.32l0,0a5.4,5.4,0,0,1,5.17-.37,1.87,1.87,0,0,0-1.55-1.69,2.51,2.51,0,0,0-1.16,0A1,1,0,0,1,33,12.5c.28,0-1.84-.7-3.11,1.81a2.93,2.93,0,0,0-.63-3.3l.06.58s-1.36-2.05-3.18-.92a7,7,0,0,1,3,3.33,4.35,4.35,0,0,0-3.28-2.14l.57.6s-3-1.15-3.68,1.82a7.75,7.75,0,0,1,4-.44l.45.13a3.21,3.21,0,0,0-2.59.82l.57.08a2.63,2.63,0,0,0-1.75,2.32h0c.47-.69,1.9-1.53,5.63-2.23-.86.59-2.38,2.4-3.67,6.74-.07.24-.69,2.34-1.15,3.93a.24.24,0,0,0,.06.24l.59.58a.24.24,0,0,0,.41-.11c.39-1.57.94-3.88,1-4.06a14.28,14.28,0,0,1,3.68-7h.1a4.74,4.74,0,0,1,1.5,3.27c.12,2.43-.35,3.05-.35,3.05a2.31,2.31,0,0,0,1.9-1.86A2.35,2.35,0,0,0,32.84,18Z"/><path class="cls-2" d="M5.42,22.81a12.07,12.07,0,0,1,6.43-1.87,0,0,0,0,1,0,0s0,0,0,0a11.17,11.17,0,0,0-5.28,3.21.91.91,0,0,1-1.3.06A.92.92,0,0,1,5.21,23a.7.7,0,0,1,.19-.16Z"/><path class="cls-2" d="M8.87,23.79A9.11,9.11,0,0,1,13,21.7a0,0,0,0,1,.05,0s0,0,0,0A8.25,8.25,0,0,0,10.34,25a1,1,0,1,1-1.74-.82,1,1,0,0,1,.23-.31Z"/><path class="cls-2" d="M23.61,10.93a2,2,0,0,0-.57-.41,1.82,1.82,0,0,0-.7-.19,2.37,2.37,0,0,0-.75.09l-.22.07a.76.76,0,0,0,0-.21,2.11,2.11,0,0,0-.26-.7A1.78,1.78,0,0,0,20.6,9a2.27,2.27,0,0,0-.63-.3,0,0,0,0,0,0,0s0,0,0,0a2.26,2.26,0,0,1,.51.4,1.46,1.46,0,0,1,.31.54,2.13,2.13,0,0,1,0,1.2V11a.33.33,0,0,0,.08.19.29.29,0,0,0,.42,0,2,2,0,0,1,1.08-.55,1.3,1.3,0,0,1,.62,0,1.71,1.71,0,0,1,.6.27s0,0,0,0A0,0,0,0,0,23.61,10.93Z"/><path class="cls-2" d="M26.46,8.14A1.93,1.93,0,0,0,26,7.61a1.78,1.78,0,0,0-.66-.33,2.31,2.31,0,0,0-.74-.08l-.23,0a1.62,1.62,0,0,0,0-.22,2.07,2.07,0,0,0-.1-.74,1.72,1.72,0,0,0-.36-.63,2.43,2.43,0,0,0-.54-.43s0,0,0,0a0,0,0,0,0,0,0,2.19,2.19,0,0,1,.42.5,1.63,1.63,0,0,1,.19.59,2.22,2.22,0,0,1-.26,1.18l0,.07a.32.32,0,0,0,0,.21.29.29,0,0,0,.4.11,2.09,2.09,0,0,1,1.17-.3,1.5,1.5,0,0,1,.61.16,1.78,1.78,0,0,1,.52.39s0,0,0,0S26.47,8.15,26.46,8.14Z"/><path class="cls-2" d="M30.43,27.84a3.3,3.3,0,0,0,1.67-2.11c-.35.32-2.69.34-3.14.33a2.27,2.27,0,0,0-.78.05c-.21.07-.5.26-.34.53a.5.5,0,0,0,.31.2A7.23,7.23,0,0,0,29,27a.88.88,0,0,1,.64.51,1.33,1.33,0,0,1,0,.49c-.06.71-.05,1.4-.1,2.11a2.94,2.94,0,0,0,1.67-.84,3.57,3.57,0,0,0,1-1.77A2.64,2.64,0,0,1,30.43,27.84Z"/><path class="cls-2" d="M11.7,32.06a6.21,6.21,0,0,0-1.11,2.51,2.7,2.7,0,0,1,1.22-.63,5.1,5.1,0,0,1,1.35-.11,2.34,2.34,0,0,0,.79,0c.2-.06.49-.26.33-.53a.5.5,0,0,0-.31-.2c-.26-.08-.54-.08-.81-.15a.85.85,0,0,1-.63-.5,1,1,0,0,1,0-.49c.05-.71,0-1.4.09-2.11a3,3,0,0,0-1.67.83,3.52,3.52,0,0,0-1,1.77A2.61,2.61,0,0,1,11.7,32.06Z"/><path class="cls-2" d="M19.71,29.57a.14.14,0,0,0-.19.1c0,.08.05.14.16.17a.53.53,0,0,0,.33,0C19.92,29.71,19.84,29.6,19.71,29.57Z"/><path class="cls-2" d="M18.74,28.64c-.15,0-.23,0-.25.11s.06.14.29.27c.1,0,.18-.09.19-.17S18.92,28.65,18.74,28.64Z"/><path class="cls-2" d="M18.45,29.13l-.05,0c-.22,0-.31.12-.34.22s.07.3.33.32.36,0,.4-.15S18.74,29.28,18.45,29.13Z"/><path class="cls-2" d="M16.94,28.65c-.16,0-.25.1-.27.2s.08.25.26.23a.68.68,0,0,0,.37-.14A.31.31,0,0,0,16.94,28.65Z"/><path class="cls-2" d="M29.13,27.78a.72.72,0,0,0-.69-.28.66.66,0,0,1,.11.94c-.26.4-.9.36-1.32.35a8.66,8.66,0,0,1-1.52-.19C23.29,28.15,21,27.27,18.52,27a8.14,8.14,0,0,0-4.24.36,1.81,1.81,0,0,0-1.14,1.5c0,.37,0,.74-.06,1.11,0,.57-.13,2-.1,2.15a.57.57,0,0,0,.69.48c-.29,0-.31-.58-.16-.74a3,3,0,0,1,1.12-.7,7.51,7.51,0,0,1,2.09-.45,15.45,15.45,0,0,1,5,.8,31,31,0,0,0,3.16.77,8.51,8.51,0,0,0,3.32.27,1.11,1.11,0,0,0,.81-1l.1-1.82A6.64,6.64,0,0,0,29.13,27.78Zm-13.26,2.3h-.21l-.07-.92a1.56,1.56,0,0,1-.4.11l0-.64a2.08,2.08,0,0,0,.75-.39A12,12,0,0,1,15.87,30.08Zm1.81-1a1,1,0,0,1-.87.78.94.94,0,0,1-.65-.18l0-.17a1,1,0,0,0,.56.1.53.53,0,0,0,.51-.41l0-.06a.78.78,0,0,1-.41.16.53.53,0,0,1-.61-.68.75.75,0,0,1,.69-.53C17.55,28.08,17.81,28.57,17.68,29.12Zm1.47.47c-.09.21-.34.33-.77.29s-.7-.33-.61-.6S18,29,18.22,29a.43.43,0,0,1-.13-.45c.07-.29.44-.37.77-.34.48,0,.65.34.58.6a.66.66,0,0,1-.46.38A.4.4,0,0,1,19.15,29.59ZM21,29.23a1.24,1.24,0,0,1-.63.73.55.55,0,0,0,.27.17l-.1.15a.68.68,0,0,1-.38-.24,1,1,0,0,1-.53,0c-.26-.06-.45-.24-.39-.48a.39.39,0,0,1,.5-.25.88.88,0,0,1,.46.41.66.66,0,0,0,.28-.35c0-.17-.06-.3-.29-.35a2.21,2.21,0,0,0-.57-.06l.37-.55a2.26,2.26,0,0,1,.52.07A.59.59,0,0,1,21,29.23Zm1,1.48a1,1,0,0,1-.61-.44l.15-.18a.89.89,0,0,0,.47.31.47.47,0,0,0,.55-.2.3.3,0,0,0-.14-.48.41.41,0,0,0-.42.13l-.17-.14a3.09,3.09,0,0,0,.39-.78l.56.07c0,.08-.15.21-.24.33a.5.5,0,0,1,.24,0c.41.11.51.52.25.93A.91.91,0,0,1,22,30.71Zm1.86.45a.57.57,0,0,1-.49-.52L23,31l-.2-.1a9.35,9.35,0,0,0,.77-1.59l.58.05-.15.27a.89.89,0,0,1,.46,0c.56.13.5.77,0,1l-.09-.06c.15-.16.15-.38-.1-.43s-.46.14-.54.38a.33.33,0,0,0,.22.46.38.38,0,0,0,.37-.13l.12.08A.63.63,0,0,1,23.82,31.16Zm1.8.39-.2-.08a8,8,0,0,0-.12-.95,4.72,4.72,0,0,1-.65.85l-.18-.1a7.73,7.73,0,0,0,.67-1.48l.49,0a5.81,5.81,0,0,1,.08.91,6.25,6.25,0,0,0,.41-1l.58,0A8.6,8.6,0,0,1,25.62,31.55Z"/><path class="cls-2" d="M20,0A20,20,0,1,0,40,20,20,20,0,0,0,20,0Zm0,38.07A18.07,18.07,0,1,1,38.07,20,18.07,18.07,0,0,1,20,38.07Z"/></g></g></svg>