<svg xmlns="http://www.w3.org/2000/svg" viewBox="0 0 120 120"><defs><style>.cls-1{fill:#fdca50;}.cls-2{fill:#4db6d8;}</style></defs><g id="Layer_2" data-name="Layer 2"><g id="Layer_1-2" data-name="Layer 1"><path class="cls-1" d="M44,77.72A16,16,0,0,0,45.27,72l3.38-.53a13.08,13.08,0,0,1-2.95,7Zm6.94-.2c1.77-2.52,2.62-4.5,2.62-6.2s-.85-2.74-3.27-2.74a20.88,20.88,0,0,0-5.64,1L46.55,64a21.15,21.15,0,0,1,5.24-.7c3,0,5.85,1.53,5.85,5.38,0,3.64-2.75,7.89-5.07,9.81Z"/><path class="cls-1" d="M70.13,71.65c1-1.68.55-3.52-1.65-3.52-2.5,0-3.75,2.17-3.92,4.37S65.68,76,67.33,76a3.33,3.33,0,0,0,3-1.87l1.15.45a5.54,5.54,0,0,1-5.32,3.79,5.14,5.14,0,0,1-5.25-3.49c-.6,1.22-1.25,2.39-1.9,3.57L57.14,78a87.33,87.33,0,0,0,3.5-15.26l5-.7c-.23.93-.45,1.8-.7,2.67a7.25,7.25,0,0,1,3.92-1.07c5.09,0,5.82,5.64,2.15,8.37Z"/><path class="cls-2" d="M29.62,48.83c0,2.86-2.29,6.12-4.11,7.63l-1.21-.77c1.39-2,2.05-3.46,2.05-4.79s-.7-2.34-2.71-2.34c-.28,0-.57,0-.86,0-1,5.35-3,7.82-5.44,7.82A2.6,2.6,0,0,1,14.92,55l.88-.82a1.46,1.46,0,0,0,1.15.64c1,0,1.84-1.6,2.29-5.8-.59.11-1.14.23-1.59.35L19.2,45.1a18.87,18.87,0,0,1,5-.67C27.29,44.43,29.62,45.78,29.62,48.83Z"/><path class="cls-2" d="M27.68,55l.84-.8a1.51,1.51,0,0,0,1.18.63c1.27,0,2.3-2.25,2.09-9.92l3.93-.64c-.25,8.64-2.46,12.14-5.63,12.14A2.56,2.56,0,0,1,27.68,55Z"/><path class="cls-2" d="M36.19,51.1c0-5.38,5.12-8.9,11.79-7.88l-1.33,4.07c-3.72-.63-7.06,1.27-7.06,4.16A2.45,2.45,0,0,0,42,54.13a1.91,1.91,0,0,0,2-1.9,2.69,2.69,0,0,0-.84-1.83l.78-.81a3.64,3.64,0,0,1,1.7,3c0,2.19-1.84,3.77-4.24,3.77A5,5,0,0,1,36.19,51.1Z"/><path class="cls-2" d="M47.41,50.69c.43-2,.74-3.95,1-6l3.93-.55a34.39,34.39,0,0,1-2.82,6.59Z"/><path class="cls-2" d="M52.05,50.69a59.2,59.2,0,0,0,1-6L57,44.18a35,35,0,0,1-2.81,6.59Z"/><path class="cls-2" d="M53.82,60.27v0a36.64,36.64,0,0,0,3-9.15l3.44-.23a28.2,28.2,0,0,1-5.12,9.94l0,0Z"/><path class="cls-2" d="M60.35,55.17c2.49-1.61,3.23-3.35,3.23-4.52s-.76-2.09-2.66-2.09a17,17,0,0,0-4.44.76L58,45a17.24,17.24,0,0,1,4.12-.55c2.33,0,4.68,1.19,4.68,4.28,0,2.86-1.94,5.95-5.71,7.49Z"/><path class="cls-1" d="M98.53,54.05a12.44,12.44,0,0,1,1.73,2.32c.62,1.11.54-4.23-3.25-8a20.83,20.83,0,0,1,3.25,2.54c3.68,3.52,5.51,6,6.27,7.65a7.58,7.58,0,0,0,0-6.13c-2.27-4.79-5.54-5.2-5.54-5.2a4.28,4.28,0,0,1,2.85,1.11c1.4,1.2-2.29-4.16-7.46-4.6a11.59,11.59,0,0,0-6.4.95l0-.06c2.48-1.67,7.84-4.1,15.51-1.1a5.61,5.61,0,0,0-4.67-5.07,7.77,7.77,0,0,0-3.47.08,2.88,2.88,0,0,1,1.59-1c.83-.13-5.52-2.09-9.33,5.43C90.5,40,91.08,35.67,87.72,33l.18,1.74S83.82,28.61,78.37,32a20.76,20.76,0,0,1,8.86,10,13,13,0,0,0-9.83-6.44l1.72,1.8s-9-3.44-11,5.48c0,0,6.57-2.69,12.14-1.32.47.12.91.24,1.34.37a9.7,9.7,0,0,0-7.76,2.47l1.71.24s-5.06,1.66-5.25,7l.12,0c1.4-2.08,5.7-4.6,16.89-6.69-2.57,1.75-7.15,7.18-11,20.21L72.8,76.92a.73.73,0,0,0,.19.71l1.78,1.76A.72.72,0,0,0,76,79.05c1.17-4.7,2.83-11.63,3-12.18,2.76-11.93,8.59-18.66,11-21.06l.32,0a14.31,14.31,0,0,1,4.5,9.8c.35,7.29-1.06,9.16-1.06,9.16s5.18-.88,5.7-5.58C99.74,56.36,99.09,54.82,98.53,54.05Z"/><path class="cls-2" d="M16.26,68.44a36.29,36.29,0,0,1,19.29-5.63.13.13,0,0,1,.13.13.12.12,0,0,1-.09.12,33.33,33.33,0,0,0-15.84,9.63,2.78,2.78,0,1,1-3.55-4.21Z"/><path class="cls-2" d="M26.6,71.37A27.52,27.52,0,0,1,39,65.09a.13.13,0,0,1,.15.1.13.13,0,0,1,0,.13A24.41,24.41,0,0,0,31,74.85a2.89,2.89,0,1,1-5.23-2.46,2.72,2.72,0,0,1,.7-.93Z"/><path class="cls-2" d="M70.83,32.8a6.09,6.09,0,0,0-1.7-1.25A5.45,5.45,0,0,0,67,31a7,7,0,0,0-2.23.26l-.66.22a5.13,5.13,0,0,0-.1-.65,6.5,6.5,0,0,0-.77-2.09,5.38,5.38,0,0,0-1.46-1.61,6.7,6.7,0,0,0-1.88-.92.09.09,0,0,0-.07.17,5.9,5.9,0,0,1,1.54,1.2,4.5,4.5,0,0,1,.94,1.6,6.46,6.46,0,0,1,0,3.62V33a.9.9,0,0,0,.23.58.88.88,0,0,0,1.25.07A6.44,6.44,0,0,1,67.05,32a4.56,4.56,0,0,1,1.87.09,5.71,5.71,0,0,1,1.8.81.08.08,0,0,0,.11,0A.08.08,0,0,0,70.83,32.8Z"/><path class="cls-2" d="M79.38,24.41A5.8,5.8,0,0,0,78,22.83a5.6,5.6,0,0,0-2-1,7,7,0,0,0-2.23-.22c-.23,0-.46,0-.69.08,0-.22,0-.44,0-.66a6.6,6.6,0,0,0-.3-2.21,5.32,5.32,0,0,0-1.09-1.89,6.71,6.71,0,0,0-1.63-1.3.09.09,0,0,0-.11,0,.09.09,0,0,0,0,.13,5.79,5.79,0,0,1,1.25,1.51,4.34,4.34,0,0,1,.57,1.76,6.54,6.54,0,0,1-.77,3.53l0,.23a.86.86,0,0,0,.1.62.88.88,0,0,0,1.2.34,6.38,6.38,0,0,1,3.53-.92,4.69,4.69,0,0,1,1.81.48,5.81,5.81,0,0,1,1.58,1.19.08.08,0,0,0,.11,0A.08.08,0,0,0,79.38,24.41Z"/><path class="cls-2" d="M91.28,83.51c2.12-.71,4.27-3.62,5-6.31-1,1-8.05,1-9.41,1a6.88,6.88,0,0,0-2.35.16c-.62.19-1.5.78-1,1.59a1.57,1.57,0,0,0,.91.6c.79.25,1.64.25,2.44.45a2.55,2.55,0,0,1,1.91,1.51A4,4,0,0,1,88.88,84c-.16,2.13-.15,4.2-.3,6.33a8.81,8.81,0,0,0,5-2.52,10.6,10.6,0,0,0,2.92-5.3A7.9,7.9,0,0,1,91.28,83.51Z"/><path class="cls-2" d="M35.09,96.17c-1.79,2-2.58,4.84-3.31,7.53a8,8,0,0,1,3.64-1.88,15,15,0,0,1,4.06-.32,7.18,7.18,0,0,0,2.36-.16c.61-.19,1.49-.78,1-1.59a1.6,1.6,0,0,0-.91-.61c-.79-.24-1.63-.24-2.44-.44a2.56,2.56,0,0,1-1.9-1.51,3.64,3.64,0,0,1-.09-1.47c.15-2.13.14-4.2.29-6.33a8.89,8.89,0,0,0-5,2.51,10.59,10.59,0,0,0-2.91,5.3A7.94,7.94,0,0,1,35.09,96.17Z"/><path class="cls-2" d="M59.13,88.71a.42.42,0,0,0-.56.29c-.06.24.14.44.47.53a1.71,1.71,0,0,0,1,0A1.77,1.77,0,0,0,59.13,88.71Z"/><path class="cls-2" d="M56.23,85.91c-.47,0-.7.11-.75.34s.18.43.85.82c.32-.11.54-.28.58-.51S56.77,86,56.23,85.91Z"/><path class="cls-2" d="M55.36,87.38l-.17-.09c-.65.14-.91.36-1,.66-.16.54.21.9,1,1,.62.07,1.06-.11,1.19-.46S56.23,87.85,55.36,87.38Z"/><path class="cls-2" d="M50.83,86c-.49,0-.77.29-.82.6s.24.73.77.69a2,2,0,0,0,1.11-.43A.91.91,0,0,0,50.83,86Z"/><path class="cls-2" d="M87.38,83.33a2.08,2.08,0,0,0-2-.82,2,2,0,0,1,.33,2.81c-.78,1.21-2.71,1.09-4,1.06a29.15,29.15,0,0,1-4.56-.57c-7.25-1.37-14.2-4-21.56-4.75-4-.41-9-.74-12.74,1.08-1.8.88-3.37,2.45-3.4,4.5,0,1.11-.13,2.22-.19,3.32-.1,1.72-.39,6.13-.31,6.45A1.71,1.71,0,0,0,41,97.85c-.88,0-.93-1.72-.49-2.21a9.13,9.13,0,0,1,3.37-2.09,22.24,22.24,0,0,1,6.28-1.35c5.12-.29,10.23,1,15.11,2.4a97.24,97.24,0,0,0,9.49,2.31c3,.57,6.9,1.56,10,.81a3.33,3.33,0,0,0,2.43-3.11l.3-5.45C87.49,88.42,87.93,84.09,87.38,83.33ZM47.62,90.25l-.65,0-.19-2.75a4.38,4.38,0,0,1-1.21.32l.1-1.92a6.51,6.51,0,0,0,2.25-1.15A40.24,40.24,0,0,1,47.62,90.25ZM53,87.36a2.82,2.82,0,0,1-2.6,2.33,2.71,2.71,0,0,1-2-.54l.13-.49a3.33,3.33,0,0,0,1.69.29,1.62,1.62,0,0,0,1.53-1.23l0-.18a2.24,2.24,0,0,1-1.23.47,1.58,1.58,0,0,1-1.81-2,2.21,2.21,0,0,1,2.07-1.58C52.64,84.24,53.42,85.72,53,87.36Zm4.4,1.42c-.25.62-1,1-2.31.86-1.54-.16-2.09-1-1.83-1.79a1.61,1.61,0,0,1,1.36-1,1.33,1.33,0,0,1-.39-1.34c.22-.88,1.31-1.12,2.3-1,1.45.15,2,1,1.75,1.79a2,2,0,0,1-1.39,1.15A1.15,1.15,0,0,1,57.44,88.78ZM63,87.7a3.68,3.68,0,0,1-1.9,2.17,1.73,1.73,0,0,0,.83.53l-.3.45a2.19,2.19,0,0,1-1.15-.73,2.91,2.91,0,0,1-1.6.07c-.78-.2-1.35-.73-1.17-1.44a1.17,1.17,0,0,1,1.5-.76,2.6,2.6,0,0,1,1.4,1.23,1.94,1.94,0,0,0,.82-1c.14-.51-.18-.9-.86-1.07A6.24,6.24,0,0,0,58.86,87L60,85.29a6.78,6.78,0,0,1,1.55.21A1.79,1.79,0,0,1,63,87.7Zm2.88,4.42a2.79,2.79,0,0,1-1.82-1.31l.45-.54a2.72,2.72,0,0,0,1.39.93,1.42,1.42,0,0,0,1.67-.59.89.89,0,0,0-.43-1.44,1.27,1.27,0,0,0-1.27.38l-.51-.42a9.32,9.32,0,0,0,1.19-2.34l1.66.2a7,7,0,0,1-.72,1,2.25,2.25,0,0,1,.73.09c1.24.33,1.53,1.56.74,2.81A2.67,2.67,0,0,1,65.88,92.12Zm5.57,1.36A1.74,1.74,0,0,1,70,91.92c-.29.36-.6.7-.9,1l-.59-.28a29.46,29.46,0,0,0,2.32-4.79l1.72.15c-.15.29-.29.56-.44.83a2.46,2.46,0,0,1,1.38-.05c1.69.39,1.5,2.31.08,2.93l-.27-.2c.46-.48.45-1.12-.28-1.29a1.43,1.43,0,0,0-1.63,1.15A1,1,0,0,0,72,92.79a1.15,1.15,0,0,0,1.13-.39l.35.23A1.88,1.88,0,0,1,71.45,93.48Zm5.42,1.16-.61-.23a21.84,21.84,0,0,0-.36-2.84A15.32,15.32,0,0,1,74,94.1l-.55-.28a22.85,22.85,0,0,0,2-4.44l1.46.07a16.49,16.49,0,0,1,.24,2.73,19.58,19.58,0,0,0,1.24-3l1.74.11A26.06,26.06,0,0,1,76.87,94.64Z"/><path class="cls-2" d="M60,0a60,60,0,1,0,60,60A60,60,0,0,0,60,0Zm0,114.22A54.22,54.22,0,1,1,114.22,60,54.21,54.21,0,0,1,60,114.22Z"/></g></g></svg>