<svg xmlns="http://www.w3.org/2000/svg" width="22.579" height="22.646" viewBox="0 0 22.579 22.646">
  <g id="Group_19" data-name="Group 19" transform="translate(-106.714 0.631)">
    <g id="Group_17" data-name="Group 17" transform="translate(107.22)">
      <path id="Path_56" data-name="Path 56" d="M351.6,483.014a10.73,10.73,0,0,1-5.843,18.9A10.731,10.731,0,0,1,334.027,490.2a11.031,11.031,0,0,1,6.185-8.737,11.2,11.2,0,0,1,10.692.773" transform="translate(-333.978 -480.454)" fill="none" stroke="#0dd9d9" stroke-miterlimit="10" stroke-width="1"/>
      <path id="Path_57" data-name="Path 57" d="M340.225,496.792a3.213,3.213,0,0,0-1.969,2.754" transform="translate(-333.978 -480.454)" fill="none" stroke="#0dd9d9" stroke-miterlimit="10" stroke-width="1"/>
      <path id="Path_58" data-name="Path 58" d="M348.854,496.447a4.8,4.8,0,0,1,2.685,2.864" transform="translate(-333.978 -480.454)" fill="none" stroke="#0dd9d9" stroke-miterlimit="10" stroke-width="1"/>
      <path id="Path_59" data-name="Path 59" d="M348.269,484.8a9.412,9.412,0,0,1,1.387,9.956,6.208,6.208,0,0,1-1.995,2.5,5.022,5.022,0,0,1-4.136.665,5.79,5.79,0,0,1-3.35-2.573,9.346,9.346,0,0,1-1.078-5.378,8.427,8.427,0,0,1,.852-3.572,5.453,5.453,0,0,1,8.664-1.263" transform="translate(-333.978 -480.454)" fill="none" stroke="#0dd9d9" stroke-miterlimit="10" stroke-width="1"/>
    </g>
  </g>
</svg>
