<svg xmlns="http://www.w3.org/2000/svg" width="22.698" height="17.494" viewBox="0 0 22.698 17.494">
  <g id="Group_22" data-name="Group 22" transform="translate(-333.212 -540.272)">
    <path id="Path_71" data-name="Path 71" d="M335.4,557.266a1.3,1.3,0,0,1-1.636-1.552c-.022-4.132.127-8.313-.048-12.428a2.806,2.806,0,0,1,.257-1.619,1.872,1.872,0,0,1,1.361-.784,13.065,13.065,0,0,1,1.724.072c.774,0,1.549-.017,2.323-.026l4.645-.052,9.291-.105a1.727,1.727,0,0,1,2,2.188q.237,6.616-.135,13.237a1.609,1.609,0,0,1-.165.744c-.3.5-1.318.245-1.808.247l-2.544.011-5.088.022Z" fill="none" stroke="#219ebc" stroke-miterlimit="10" stroke-width="1"/>
    <path id="Path_72" data-name="Path 72" d="M335.312,542.343l8.448,7.23a1.094,1.094,0,0,0,.818.367,1.076,1.076,0,0,0,.486-.269l3.657-2.953,1.841-1.487,3.208-2.591" fill="none" stroke="#219ebc" stroke-miterlimit="10" stroke-width="1"/>
  </g>
</svg>
